<?xml version="1.0" encoding="UTF-8"?>
<svg xmlns="http://www.w3.org/2000/svg" xmlns:xlink="http://www.w3.org/1999/xlink" version="1.1" viewBox="0 0 985.9 112.4">
  <defs>
    <style>
      .cls-1, .cls-2 {
        fill: none;
      }

      .cls-3 {
        fill: #35498d;
      }

      .cls-4 {
        fill: #de1e26;
      }

      .cls-5 {
        fill: #fff;
      }

      .cls-2 {
        stroke: #de1e26;
        stroke-miterlimit: 2.6;
        stroke-width: .2px;
      }

      .cls-6 {
        clip-path: url(#clippath);
      }
    </style>
    <clipPath id="clippath">
      <path class="cls-1" d="M31.5,112.4h20.6c17.4,0,31.5-14.1,31.5-31.5V31.5c0-17.4-14.1-31.5-31.5-31.5h-20.6C14.1,0,0,14.1,0,31.5v49.4c0,17.4,14.1,31.5,31.5,31.5"/>
    </clipPath>
  </defs>
  <!-- Generator: Adobe Illustrator 28.7.1, SVG Export Plug-In . SVG Version: 1.2.0 Build 142)  -->
  <g>
    <g id="Layer_1">
      <path class="cls-3" d="M112.7,28.8v-10.1h64.3l-36.8,64.8h34.5v10.1h-64.2l36.7-64.8h-34.6ZM222.9,18.9c5.3,0,10.4.8,15.2,2.4,4.9,1.6,9,3.9,12.6,6.9,4.2,3.5,7.4,7.7,9.6,12.5,2.2,4.8,3.3,10,3.3,15.7s-1.1,10.9-3.3,15.6c-2.2,4.7-5.4,8.9-9.6,12.4-3.5,3-7.7,5.3-12.6,6.9-4.8,1.6-9.9,2.4-15.2,2.4s-10.4-.8-15.2-2.5c-4.8-1.6-9-3.9-12.5-6.9-4.3-3.6-7.5-7.8-9.6-12.5-2.2-4.8-3.2-10-3.2-15.7s1.1-10.8,3.3-15.6c2.2-4.8,5.4-9,9.6-12.5,3.5-2.9,7.6-5.2,12.5-6.8,4.8-1.6,9.9-2.4,15.3-2.4ZM205.4,56.3h0c0,9,1.6,16,4.7,21,3.1,5,7.4,7.6,12.9,7.6s9.8-2.5,12.9-7.6c3.1-5,4.7-12,4.7-21s-1.6-16-4.7-21c-3.1-5-7.4-7.5-13-7.5s-9.8,2.5-12.9,7.5c-3.1,5-4.7,12-4.7,21ZM277,93.7V18.7h33.3c9.6,0,17.1,2,22.6,6.1,5.5,4.1,8.2,9.7,8.2,16.8s-1.5,9.4-4.5,12.7c-3,3.3-7.4,5.7-13.3,7l18.5,32.2h-24l-18.6-38.1h4.8c5.3,0,9.2-1.1,11.8-3.3,2.6-2.2,3.9-5.6,3.9-10.1s-1.3-8.3-4-10.6c-2.7-2.3-6.8-3.4-12.5-3.4h-5.4v65.6h-20.8ZM355.3,93.7V18.7h47.9v10.1h-26.4v21.8h25v10.1h-25v22.9h27.8v10.1h-49.3ZM411.9,18.7h23.7l12.1,22,14.1-22h11.6l-20.2,30.8,25.2,44.2h-23.6l-14.2-25.5-16.5,25.5h-11.4l22.5-34.3-23.1-40.6ZM516.5,93.7V18.7h30.5c9.8,0,17.4,2.1,22.8,6.3,5.4,4.2,8.1,10.1,8.1,17.8s-2.2,11.2-6.5,14.9c-4.3,3.7-10.2,5.5-17.5,5.5h-16.6v30.4h-20.8ZM537.3,28h0v25.9h4.8c5.1,0,8.9-1,11.3-2.9,2.4-1.9,3.7-4.9,3.7-8.9s-1.4-7.6-4.3-10.3c-2.8-2.6-6.6-3.9-11.2-3.9h-4.3ZM634.2,50.7v-32h21.4v74.9h-21.4v-32.8h-22.9v32.8h-21.4V18.7h21.4v32h22.9ZM664.6,93.7l26.2-74.9h20.7l28,74.9h-22.8l-8.1-22.1h-25.7l-7.6,22.1h-10.9ZM686.4,62h18.9l-9.9-26.8-9,26.8ZM748.4,93.7V18.7h33.3c9.6,0,17.1,2,22.6,6.1,5.5,4.1,8.2,9.7,8.2,16.8s-1.5,9.4-4.5,12.7c-3,3.3-7.4,5.7-13.3,7l18.5,32.2h-24l-18.6-38.1h4.8c5.3,0,9.2-1.1,11.8-3.3,2.6-2.2,3.9-5.6,3.9-10.1s-1.3-8.3-4-10.6c-2.7-2.3-6.8-3.4-12.5-3.4h-5.4v65.6h-20.8ZM826.8,93.7V18.7h20l17.2,40.4,17.1-40.4h21v74.9h-21.3v-49.3l-20.6,49.3h-2.1l-20.2-47.1v47.1h-11.1ZM910.9,93.7l26.2-74.9h20.7l28,74.9h-22.8l-8.1-22.1h-25.7l-7.6,22.1h-10.9ZM932.7,62h18.9l-9.9-26.8-9,26.8Z"/>
      <g class="cls-6">
        <path class="cls-4" d="M30.8,116.3h22c18.6,0,33.7-15.1,33.7-33.7V29.8c0-18.6-15.1-33.7-33.7-33.7h-22C12.2-3.9-2.9,11.2-2.9,29.8v52.7c0,18.6,15.1,33.7,33.7,33.7Z"/>
        <path class="cls-2" d="M30.8,116.3h22c18.6,0,33.7-15.1,33.7-33.7V29.8c0-18.6-15.1-33.7-33.7-33.7h-22C12.2-3.9-2.9,11.2-2.9,29.8v52.7c0,18.6,15.1,33.7,33.7,33.7Z"/>
        <rect class="cls-5" x="-1.4" y="54.3" width="87.1" height="3.8"/>
        <path class="cls-4" d="M52.1,0h-20.6C14.1,0,0,14.1,0,31.5v22.9h83.6v-22.9c0-17.4-14.1-31.5-31.5-31.5"/>
        <path class="cls-4" d="M31.5,112.4h20.6c17.4,0,31.5-14.1,31.5-31.5v-22.9H0v22.9c0,17.4,14.1,31.5,31.5,31.5"/>
        <path d="M61.5,30.5H26.4l2.2,1.4c3.4,2.2,7.1,3.6,10.9,4.2l4.4,67.1,4.4-67.1c3.8-.6,7.6-2,10.9-4.2l2.2-1.4Z"/>
        <path d="M52.4,20.1h0c1,.3,1.7.9,1.5,1.4-.2.5-1.1.8-2.1.5-1-.3-1.7-.9-1.5-1.4.2-.5,1.1-.8,2.1-.5M58.4,49.3c-1-1.8-2.4-3.4-4.1-4.6-1.7-1.2-3.5-2.2-5.4-2.9-3.8-1.5-7.7-2.2-11.3-2.8-3.7-.6-7.1-1.2-10.1-2.3-1.5-.5-2.9-1.1-4.1-1.9-1.1-.7-2.1-1.7-2.9-2.7-1.6-2.1-2.1-4.5-1.2-6.2.5-.9,1.2-1.8,2.3-2.4,1.1-.7,2.5-1.2,4-1.6,3.1-.8,6.6-.9,10.2-.9,2.7,0,5.4.1,8.1.3,0,1.1.6,3.7,4.3,4,2.9.2,5.5.3,8,.1,1.4,0,3.3-1.7,2.6-2.8-1.5-2.3-4.8-5.4-12.1-5.9-5-.4-10.3-.6-14.2-.7,0,0-3.9,0-6.1.1l-1.9.2c0,0-.1,0-.2,0-2.1.3-4.2.9-6.2,2-2,1-3.9,2.7-5.1,4.7-1.2,2.1-1.5,4.5-1.1,6.7.4,2.2,1.4,4.1,2.6,5.8,1.3,1.7,3,3.1,4.9,4.3,1.9,1.1,3.9,1.9,5.8,2.5,4,1.1,7.8,1.5,11.5,1.9,3.6.4,7.1.9,10.1,1.9,3.1,1,5.7,2.6,7,5,1.4,2.3,1.7,5.3.3,7.2-1.3,2-4.6,2.9-8.2,3.4-1.8.3-3.7.5-5.7,1.2-1.9.6-3.8,1.6-5.4,3-1.5,1.4-2.7,3.6-2.2,5.8.4,2.2,2.1,3.8,3.8,4.8,1.7,1,3.7,1.6,5.5,2,1.8.4,3.6.8,5.1,1.3,1.6.6,2.9,1.4,3.8,2.7.9,1.2,1.3,2.8,1.1,4.2-.3,3-3.4,5.6-6.9,5.8v.6c3.9,0,7.7-2.6,8.4-6.2.4-1.8,0-3.6-1-5.2-1-1.7-2.7-2.9-4.5-3.6-3.6-1.5-7.4-1.9-10-3.7-1.3-.9-2.2-2-2.3-3.1-.1-1.2.4-2.2,1.5-3.1,1.1-.9,2.6-1.6,4.1-2,1.5-.4,3.2-.6,5.1-.8,1.9-.2,3.8-.5,5.8-1.1,2-.6,4.1-1.8,5.5-3.6,1.4-1.7,2-3.9,2-5.9,0-2-.6-3.9-1.5-5.7Z"/>
      </g>
    </g>
  </g>
</svg>